<?xml version="1.0" encoding="utf-8"?>
<!-- Generator: Adobe Illustrator 16.0.4, SVG Export Plug-In . SVG Version: 6.00 Build 0)  -->
<!DOCTYPE svg PUBLIC "-//W3C//DTD SVG 1.1//EN" "http://www.w3.org/Graphics/SVG/1.1/DTD/svg11.dtd">
<svg version="1.1" id="Laag_1" xmlns="http://www.w3.org/2000/svg" xmlns:xlink="http://www.w3.org/1999/xlink" x="0px" y="0px"
	 width="70.866px" height="70.866px" viewBox="0 0 70.866 70.866" enable-background="new 0 0 70.866 70.866" xml:space="preserve">
<path fill="#FFFFFF" d="M69.259,55.183h-4.941V36.622h4.816V31.39H53.786V0H17.104v31.39H1.607v5.232h4.815v18.561h-4.69v9.316
	h10.613v6.367h7.375v-6.367h30.449v6.367h7.375v-6.367h11.715V55.183z M59.085,55.183h-5.299V36.789v-0.167h5.299V55.183z
	 M22.188,36.789h5.299v18.394h-5.299V36.789z M32.719,36.789h5.301v18.394h-5.301V36.789z M43.253,36.789h5.301v18.394h-5.301
	V36.789z M22.336,5.232h26.217V31.39H22.336V5.232z M11.655,36.622h5.301v18.561h-5.301V36.622z"/>
</svg>
