<?xml version="1.0" encoding="utf-8"?>
<!-- Generator: Adobe Illustrator 16.0.4, SVG Export Plug-In . SVG Version: 6.00 Build 0)  -->
<!DOCTYPE svg PUBLIC "-//W3C//DTD SVG 1.1//EN" "http://www.w3.org/Graphics/SVG/1.1/DTD/svg11.dtd">
<svg version="1.1" id="Laag_1" xmlns="http://www.w3.org/2000/svg" xmlns:xlink="http://www.w3.org/1999/xlink" x="0px" y="0px"
	 width="70.866px" height="70.866px" viewBox="0 0 70.866 70.866" enable-background="new 0 0 70.866 70.866" xml:space="preserve">
<path fill="#FFFFFF" d="M70.866,5.232V0H0v5.232h25.204v8.794H0v5.232h11.496v8.795H0v5.232h25.204v8.794H0v5.232h11.496v8.464H0
	v0.331v14.759h70.866V56.107v-0.331H47.145v-8.464h23.722V42.08H60.853v-8.794h10.014v-5.232H47.145v-8.795h23.722v-5.232H60.853
	V5.232H70.866z M41.912,55.776H16.729v-8.464h25.184V55.776z M55.62,42.08H30.437v-8.794H55.62V42.08z M41.912,28.054H16.729v-8.795
	h25.184V28.054z M55.62,14.026H30.437V5.232H55.62V14.026z"/>
</svg>
