<?xml version="1.0" encoding="utf-8"?>
<!-- Generator: Adobe Illustrator 16.0.4, SVG Export Plug-In . SVG Version: 6.00 Build 0)  -->
<!DOCTYPE svg PUBLIC "-//W3C//DTD SVG 1.1//EN" "http://www.w3.org/Graphics/SVG/1.1/DTD/svg11.dtd">
<svg version="1.1" id="Laag_1" xmlns="http://www.w3.org/2000/svg" xmlns:xlink="http://www.w3.org/1999/xlink" x="0px" y="0px"
	 width="70.866px" height="70.866px" viewBox="0 0 70.866 70.866" enable-background="new 0 0 70.866 70.866" xml:space="preserve">
<path fill="#FFFFFF" d="M56.483,44.453c6.329-1.222,11.111-6.786,11.111-13.473c0-3.862-1.601-7.347-4.169-9.841
	c0.812-1.52,1.275-3.254,1.275-5.098c0-5.983-4.851-10.833-10.833-10.833c-5.983,0-10.834,4.85-10.834,10.833
	c0,1.844,0.464,3.578,1.275,5.097c-2.568,2.495-4.17,5.979-4.17,9.841c0,6.687,4.782,12.249,11.111,13.473v21.181H0v5.232h70.866
	v-5.232H56.483V44.453z"/>
</svg>
