<?xml version="1.0" encoding="utf-8"?>
<!-- Generator: Adobe Illustrator 16.0.4, SVG Export Plug-In . SVG Version: 6.00 Build 0)  -->
<!DOCTYPE svg PUBLIC "-//W3C//DTD SVG 1.1//EN" "http://www.w3.org/Graphics/SVG/1.1/DTD/svg11.dtd">
<svg version="1.1" id="Laag_1" xmlns="http://www.w3.org/2000/svg" xmlns:xlink="http://www.w3.org/1999/xlink" x="0px" y="0px"
	 width="70.866px" height="70.866px" viewBox="0 0 70.866 70.866" enable-background="new 0 0 70.866 70.866" xml:space="preserve">
<g>
	<path fill="#FFFFFF" d="M59.588,23.752L51.21,42.125H1.606v5.232h4.815v18.561h-4.69v4.948h69.135V23.752H59.588z M32.719,47.357
		h5.301v18.561h-5.301V47.357z M27.486,65.918h-5.299V47.357h5.299V65.918z M43.252,47.357h5.301v18.561h-5.301V47.357z
		 M11.654,47.357h5.301v18.561h-5.301V47.357z"/>
	<path fill="#FFFFFF" d="M16.42,19.144h15.155c2.097,0,3.795-1.699,3.795-3.796c0-2.095-1.698-3.793-3.795-3.793
		c-0.407,0-0.791,0.08-1.159,0.199c0.062-0.354,0.102-0.716,0.102-1.088c0-3.409-2.764-6.173-6.173-6.173
		c-3.294,0-5.977,2.582-6.155,5.83c-0.545-0.227-1.143-0.354-1.77-0.354c-2.534,0-4.588,2.053-4.588,4.587
		C11.832,17.089,13.886,19.144,16.42,19.144z"/>
</g>
</svg>
