<?xml version="1.0" encoding="utf-8"?>
<!-- Generator: Adobe Illustrator 16.0.4, SVG Export Plug-In . SVG Version: 6.00 Build 0)  -->
<!DOCTYPE svg PUBLIC "-//W3C//DTD SVG 1.1//EN" "http://www.w3.org/Graphics/SVG/1.1/DTD/svg11.dtd">
<svg version="1.1" id="Laag_1" xmlns="http://www.w3.org/2000/svg" xmlns:xlink="http://www.w3.org/1999/xlink" x="0px" y="0px"
	 width="73.701px" height="73.701px" viewBox="0 0 73.701 73.701" enable-background="new 0 0 73.701 73.701" xml:space="preserve">
<g>
	<path fill="#FFFFFF" d="M30.417,0H0v30.417C0,13.618,13.618,0,30.417,0z"/>
	<path fill="#FFFFFF" d="M46.085,56.491c-4.577,2.756-9.937,4.343-15.668,4.343C13.618,60.834,0,47.216,0,30.417v43.284h63.309
		L46.085,56.491z"/>
	<path fill="#FFFFFF" d="M60.834,30.417c0,5.723-1.583,11.074-4.331,15.646l17.198,17.184V0H30.417
		C47.216,0,60.834,13.618,60.834,30.417z"/>
	<polygon fill="#FFFFFF" points="63.366,73.701 73.701,73.701 73.701,63.358 	"/>
	<path fill="#FFFFFF" d="M14.74,30.417c0,8.644,7.033,15.677,15.677,15.677s15.677-7.033,15.677-15.677S39.061,14.74,30.417,14.74
		S14.74,21.773,14.74,30.417z"/>
</g>
</svg>
