<?xml version="1.0" encoding="utf-8"?>
<!-- Generator: Adobe Illustrator 16.0.4, SVG Export Plug-In . SVG Version: 6.00 Build 0)  -->
<!DOCTYPE svg PUBLIC "-//W3C//DTD SVG 1.1//EN" "http://www.w3.org/Graphics/SVG/1.1/DTD/svg11.dtd">
<svg version="1.1" id="Laag_1" xmlns="http://www.w3.org/2000/svg" xmlns:xlink="http://www.w3.org/1999/xlink" x="0px" y="0px"
	 width="126.059px" height="39.31px" viewBox="0 0 126.059 39.31" enable-background="new 0 0 126.059 39.31" xml:space="preserve">
<g>
	<path fill="#19C7A5" d="M12.588,28.067v-5.765c0-3.299-2.114-4.9-5.798-4.9c-3.395,0-6.054,1.474-6.277,4.612l4.26,0.801
		c0.063-1.378,0.673-2.178,1.858-2.178c1.185,0,1.729,0.769,1.729,2.05v1.409C2.658,23.776,0,25.569,0,28.868
		c0,2.53,1.73,4.068,4.355,4.068c2.019,0,3.619-0.609,4.293-2.435c0.48,1.602,1.633,2.338,3.522,2.338
		c1.024,0,1.825-0.16,2.435-0.544v-3.107c-0.289,0.129-0.576,0.225-0.93,0.225C13.004,29.413,12.588,29.061,12.588,28.067z
		 M8.359,27.907c0,1.441-1.312,1.986-2.434,1.986c-1.025,0-1.634-0.608-1.634-1.474c0-1.312,1.058-2.113,4.067-2.018V27.907z"/>
	<path fill="#19C7A5" d="M23.412,29.637c-1.922,0-3.043-1.665-3.043-4.483c0-2.69,1.057-4.388,2.979-4.388
		c1.441,0,2.178,0.929,2.402,2.498l3.619-0.993c-0.225-2.979-2.466-4.868-5.988-4.868c-4.324,0-7.175,2.883-7.175,7.815
		c0,4.932,2.851,7.719,7.142,7.719c3.139,0,5.701-1.378,6.246-4.356l-3.779-1.217C25.43,29.061,24.565,29.637,23.412,29.637z"/>
	<path fill="#19C7A5" d="M41.123,17.402c-2.273,0-3.844,0.993-4.611,3.171l-0.057-4.82c1.653-0.693,2.816-2.327,2.816-4.232V0.993
		c0-0.265-0.473-0.503-1.23-0.683v11.21c0,0-0.189,0.688-1.328,0.688V0.094C36.288,0.048,35.83,0.016,35.344,0v12.209h-1.328V0
		c-0.486,0.016-0.944,0.048-1.369,0.094v12.115c-1.137,0-1.328-0.688-1.328-0.688V0.311c-0.756,0.18-1.229,0.418-1.229,0.683v10.527
		c0,1.9,1.155,3.53,2.802,4.229c-0.127,11.021-0.673,16.803-0.673,16.803h4.293v-8.167c0-2.627,1.312-3.396,2.689-3.396
		c1.537,0,1.986,1.058,1.986,2.69v8.872h4.291V22.078C45.479,18.748,43.397,17.402,41.123,17.402z"/>
	<path fill="#19C7A5" d="M55.889,29.285c-1.186,0-1.794-0.513-1.794-2.082v-6.149h4.42v-3.299h-4.388v-3.651l-4.292,0.513v3.139
		h-2.178v3.299h2.146v7.11c0,3.395,1.922,4.772,4.868,4.772c1.762,0,3.299-0.32,4.548-0.961l-0.736-3.619
		C57.618,28.965,56.817,29.285,55.889,29.285z"/>
	<path fill="#19C7A5" d="M70.62,17.402c-2.274,0-3.844,0.993-4.612,3.171v-9.416h-0.028V0.479c-3.196,0-7.52,6.732-3.729,16.918
		c-0.131,9.893-0.535,15.154-0.535,15.154h4.292v-8.167c0-2.627,1.313-3.396,2.69-3.396c1.537,0,1.986,1.058,1.986,2.69v8.872h4.291
		V22.078C74.976,18.748,72.895,17.402,70.62,17.402z"/>
	<path fill="#19C7A5" d="M85.064,17.402c-4.324,0-7.174,2.69-7.174,7.719c0,4.996,2.85,7.815,7.174,7.815
		c4.292,0,7.143-2.819,7.143-7.815C92.207,20.093,89.356,17.402,85.064,17.402z M85.064,29.605c-2.018,0-2.946-1.409-2.946-4.484
		c0-2.914,0.961-4.292,2.946-4.292c1.954,0,2.915,1.378,2.915,4.292C87.979,28.196,87.05,29.605,85.064,29.605z"/>
	<path fill="#19C7A5" d="M103.044,17.53c1.292-4.655,5.792-4.609,10.164-4.128c0,0-1.323-2.704-5.384-2.704
		c-1.31,0-2.526,0.76-3.558,2.049c-0.303-0.866-1.035-2.622-2.256-3.5c-1.511-1.085-3.917-0.551-4.177-0.66
		c-0.544-0.229-0.41-0.929-0.379-1.327c0,0-1.156,0.674-1.156,2.147c0,1.729,1.896,3.112,3.521,3.295
		c1.546,0.175,3.06,0.236,4.009,0.642c-0.745,1.099-1.375,2.486-1.845,4.074l0.039,0.006c-0.175-0.01-0.349-0.021-0.528-0.021
		c-4.324,0-7.174,2.69-7.174,7.719c0,4.996,2.85,7.815,7.174,7.815c4.292,0,7.143-2.819,7.143-7.815
		C108.637,20.726,106.459,18.117,103.044,17.53z M101.494,29.605c-2.018,0-2.946-1.409-2.946-4.484c0-2.914,0.961-4.292,2.946-4.292
		c1.954,0,2.915,1.378,2.915,4.292C104.409,28.196,103.479,29.605,101.494,29.605z"/>
	<path fill="#19C7A5" d="M120.166,29.637h-4.228c-0.769,0-1.186-0.384-1.186-0.896c0-0.48,0.192-0.896,0.705-1.217
		c0.352,0.128,1.089,0.192,1.793,0.192c3.779,0,6.79-1.666,6.79-5.093c0-1.025-0.224-1.922-0.672-2.626
		c1.217-0.353,2.529-1.346,2.689-2.787l-3.362-1.121c-0.32,1.186-0.48,1.602-1.121,2.242c-1.089-0.608-2.53-0.929-4.196-0.929
		c-3.939,0-6.565,1.794-6.565,5.221c0,2.37,1.057,3.651,3.075,4.452c-1.729,0.48-2.499,1.762-2.499,2.914
		c0,1.313,0.93,2.53,2.402,2.627c-2.658,0.191-3.907,1.249-3.907,2.979c0,2.851,3.267,3.715,6.918,3.715
		c4.228,0,8.584-1.089,8.584-5.316C125.387,31.431,123.497,29.637,120.166,29.637z M117.379,20.317c1.474,0,2.274,0.736,2.274,2.306
		c0,1.474-0.801,2.274-2.274,2.274c-1.505,0-2.241-0.961-2.241-2.274C115.138,21.149,115.874,20.349,117.379,20.317z
		 M117.283,36.459c-2.273,0-3.459-0.544-3.459-1.697c0-0.865,0.865-1.281,2.082-1.281h3.651c1.281,0,1.825,0.353,1.825,1.249
		C121.383,35.915,120.262,36.459,117.283,36.459z"/>
</g>
</svg>
